<svg width="62" height="76" viewBox="0 0 62 76" fill="none" xmlns="http://www.w3.org/2000/svg">
<path d="M58.625 20.125V55.125C58.625 69.125 55.125 72.625 41.125 72.625H20.125C6.125 72.625 2.625 69.125 2.625 55.125V20.125C2.625 6.125 6.125 2.625 20.125 2.625H41.125C55.125 2.625 58.625 6.125 58.625 20.125Z" stroke="#070304" stroke-width="5.25" stroke-linecap="round" stroke-linejoin="round"/>
<path opacity="0.4" d="M37.625 14.875H23.625" stroke="#070304" stroke-width="5.25" stroke-linecap="round" stroke-linejoin="round"/>
<path opacity="0.4" d="M30.6242 62.475C33.6204 62.475 36.0492 60.0461 36.0492 57.05C36.0492 54.0539 33.6204 51.625 30.6242 51.625C27.6281 51.625 25.1992 54.0539 25.1992 57.05C25.1992 60.0461 27.6281 62.475 30.6242 62.475Z" stroke="#070304" stroke-width="5.25" stroke-linecap="round" stroke-linejoin="round"/>
</svg>
