<svg width="70" height="70" viewBox="0 0 70 70" fill="none" xmlns="http://www.w3.org/2000/svg">
<path d="M29.1654 49.4372H18.1112C8.28203 49.4372 5.83203 46.9872 5.83203 37.1581V19.6581C5.83203 9.82891 8.28203 7.37891 18.1112 7.37891H48.8237C58.6529 7.37891 61.1029 9.82891 61.1029 19.6581" stroke="#070304" stroke-width="4.375" stroke-linecap="round" stroke-linejoin="round"/>
<path d="M29.168 62.6218V49.4385" stroke="#070304" stroke-width="4.375" stroke-linecap="round" stroke-linejoin="round"/>
<path opacity="0.4" d="M5.83203 37.7715H29.1654" stroke="#070304" stroke-width="4.375" stroke-linecap="round" stroke-linejoin="round"/>
<path d="M19.6602 62.6211H29.1685" stroke="#070304" stroke-width="4.375" stroke-linecap="round" stroke-linejoin="round"/>
<path d="M64.1677 37.3326V53.9867C64.1677 60.8992 62.4469 62.62 55.5344 62.62H45.1802C38.2677 62.62 36.5469 60.8992 36.5469 53.9867V37.3326C36.5469 30.4201 38.2677 28.6992 45.1802 28.6992H55.5344C62.4469 28.6992 64.1677 30.4201 64.1677 37.3326Z" stroke="#070304" stroke-width="4.375" stroke-linecap="round" stroke-linejoin="round"/>
<path opacity="0.4" d="M50.2978 53.2288H50.324" stroke="#070304" stroke-width="5.83333" stroke-linecap="round" stroke-linejoin="round"/>
</svg>
