<svg width="44" height="44" viewBox="0 0 44 44" fill="none" xmlns="http://www.w3.org/2000/svg">
<path d="M15.7132 31.4284C24.3919 31.4284 31.4274 24.3929 31.4274 15.7141C31.4274 14.7306 31.3371 13.7681 31.1642 12.8345C30.2307 12.6617 29.2682 12.5713 28.2846 12.5713C19.6058 12.5713 12.5703 19.6068 12.5703 28.2856C12.5703 29.2692 12.6607 30.2317 12.8336 31.1652C13.7671 31.3381 14.7296 31.4284 15.7132 31.4284Z" fill="#175CD3"/>
<path fill-rule="evenodd" clip-rule="evenodd" d="M12.8347 31.1653C5.53118 29.8127 0 23.4095 0 15.7143C0 7.03553 7.03553 0 15.7143 0C23.4095 0 29.8128 5.53118 31.1653 12.8347C30.2318 12.6618 29.2693 12.5714 28.2857 12.5714C19.607 12.5714 12.5714 19.607 12.5714 28.2857C12.5714 29.2693 12.6618 30.2318 12.8347 31.1653Z" fill="#1570EF"/>
<path fill-rule="evenodd" clip-rule="evenodd" d="M15.7155 31.4289C24.3943 31.4289 31.4298 24.3933 31.4298 15.7146C31.4298 14.731 31.3395 13.7685 31.1666 12.835C38.4701 14.1875 44.0013 20.5908 44.0013 28.286C44.0013 36.9648 36.9657 44.0003 28.287 44.0003C20.5918 44.0003 14.1885 38.4691 12.8359 31.1656C13.7695 31.3385 14.732 31.4289 15.7155 31.4289Z" fill="#2E90FA"/>
</svg>
