<svg width="1602" height="392" viewBox="0 0 1602 392" fill="none" xmlns="http://www.w3.org/2000/svg">
<path d="M225.043 196.679C225.043 206.763 221.518 215.404 214.512 222.58C207.485 229.777 198.759 233.365 188.356 233.365C178.208 233.365 169.546 229.777 162.37 222.58C155.237 215.404 151.67 206.763 151.67 196.679C151.67 186.212 155.237 177.401 162.37 170.268C169.546 163.092 178.208 159.483 188.356 159.483C198.759 159.483 207.485 163.092 214.512 170.268C221.518 177.401 225.043 186.212 225.043 196.679ZM376.628 195.15C376.628 219.607 372.721 243.513 364.909 266.824C357.096 290.156 345.334 311.196 329.666 329.921C314.04 348.667 294.466 363.592 270.985 374.675C247.483 385.778 220.075 391.319 188.781 391.319C157.19 391.319 129.548 385.778 105.897 374.675C82.2254 363.592 62.5448 348.667 46.8768 329.921C31.2512 311.196 19.532 290.156 11.7192 266.824C3.9064 243.513 0 219.607 0 195.15C0 170.693 3.9064 146.893 11.7192 123.731C19.532 100.59 31.2512 79.7202 46.8768 61.1436C62.5448 42.5882 82.2254 27.7482 105.897 16.6447C129.548 5.56237 157.19 0 188.781 0C220.075 0 247.483 5.56237 270.985 16.6447C294.466 27.7482 314.04 42.5882 329.666 61.1436C345.334 79.7202 357.096 100.59 364.909 123.731C372.721 146.893 376.628 170.693 376.628 195.15ZM303.255 196.679C303.255 180.671 300.793 165.088 295.867 149.972C290.984 134.813 283.83 121.098 274.382 108.87C264.913 96.6409 253.003 86.9386 238.63 79.7415C224.299 72.5656 207.676 68.9564 188.781 68.9564C169.589 68.9564 152.795 72.5656 138.422 79.7415C124.092 86.9386 112.118 96.6409 102.501 108.87C92.8619 121.098 85.686 134.813 80.9304 149.972C76.2172 165.088 73.8819 180.671 73.8819 196.679C73.8819 212.304 76.2172 227.633 80.9304 242.621C85.686 257.631 92.8619 271.155 102.501 283.214C112.118 295.273 124.092 304.911 138.422 312.087C152.795 319.284 169.589 322.872 188.781 322.872C207.676 322.872 224.299 319.284 238.63 312.087C253.003 304.911 264.913 295.273 274.382 283.214C283.83 271.155 290.984 257.631 295.867 242.621C300.793 227.633 303.255 212.304 303.255 196.679Z" fill="black"/>
<path d="M719.039 0C722.605 0 724.389 1.48613 724.389 4.41593V386.903C724.389 389.854 722.605 391.319 719.039 391.319H654.498C654.158 391.319 653.415 391.149 652.29 390.81C651.144 390.47 650.422 390.173 650.082 389.875L470.048 132.053V297.396H395.232V4.41593C395.232 1.48613 396.867 0 400.158 0H465.208C465.823 0 466.609 0.0849217 467.585 0.254765C468.605 0.424608 469.284 0.827988 469.624 1.44367L650.082 259.266V4.41593C650.082 1.48613 652.035 0 655.942 0H719.039Z" fill="black"/>
<path d="M932.813 0C951.708 0 971.75 1.31629 992.938 3.9064C1014.17 6.51774 1034.72 11.5918 1054.59 19.1074C1074.5 26.5805 1092.55 37.5142 1108.69 51.8872C1124.82 66.2177 1137.69 85.0491 1147.33 108.36C1156.94 131.692 1161.76 160.799 1161.76 195.66C1161.76 229.246 1157.03 257.525 1147.58 280.496C1138.11 303.489 1125.37 322.257 1109.37 336.799C1093.4 351.3 1075.4 362.531 1055.36 370.513C1035.31 378.496 1014.76 383.973 993.702 386.903C972.684 389.854 952.387 391.319 932.813 391.319H868.697C865.13 391.319 863.347 389.854 863.347 386.903V233.365H938.163V319.391C947.611 319.73 958.714 319.518 971.452 318.711C984.191 317.862 997.226 315.399 1010.6 311.323C1023.96 307.247 1036.42 300.835 1047.97 292.046C1059.56 283.214 1068.88 270.985 1075.91 255.36C1082.91 239.691 1086.44 219.777 1086.44 195.66C1086.44 164.706 1079.98 139.845 1067.07 121.098C1054.21 102.309 1036.61 88.913 1014.25 80.9304C991.876 72.9477 966.527 69.7844 938.163 71.4191V157.954H863.347V4.41593C863.347 1.48613 865.13 0 868.697 0H932.813Z" fill="black"/>
<path d="M1527.11 296.886V172.646L1427.33 372.721C1426.69 374.717 1425.22 375.694 1422.91 375.694H1362.78C1360.17 375.694 1358.54 374.717 1357.86 372.721L1251.71 167.296V386.903C1251.71 389.854 1249.92 391.319 1246.36 391.319H1181.82C1178.53 391.319 1176.89 389.854 1176.89 386.903V4.41593C1176.89 1.48613 1178.53 0 1181.82 0H1247.29C1249.95 0 1251.58 0.997831 1252.22 2.97226L1392.59 289.583L1526.17 2.97226C1527.47 0.997831 1529.25 0 1531.52 0H1596.06C1599.67 0 1601.5 1.48613 1601.5 4.41593V296.886H1527.11Z" fill="black"/>
</svg>
